<svg xmlns="http://www.w3.org/2000/svg" id="Group_307" width="56.253" height="55.135" data-name="Group 307" viewBox="0 0 56.253 55.135">
    <defs>
        <style>
            .cls-1,.cls-2{fill:#fff}.cls-1{opacity:.47}
        </style>
    </defs>
    <path id="Path_741" d="M52.1 45.86a4.556 4.556 0 0 1-4.556 4.556H30.578l-5.946 4.714v-4.685h-1.92a4.556 4.556 0 0 1-4.542-4.585V21.072a4.556 4.556 0 0 1 4.556-4.556h10.589v-3.3h-10.6a7.866 7.866 0 0 0-7.852 7.852V45.86a7.866 7.866 0 0 0 6.473 7.74v8.368l10.4-8.253H47.5a7.866 7.866 0 0 0 7.895-7.852z" class="cls-1" data-name="Path 741" transform="translate(-14.86 -6.83)"/>
    <path id="Path_742" d="M37.221 31.685a1.648 1.648 0 0 0 1.619-1.433l2.866-6.319 2.994 6.792 4.542 10.03a1.648 1.648 0 0 0 1.5.96h.129a1.648 1.648 0 0 0 1.433-.96l4.112-9.07h8.325a1.648 1.648 0 0 0 1.433-1.633v-13.44a7.866 7.866 0 0 0-7.847-7.852H33.682a7.866 7.866 0 0 0-7.852 7.852v5.875a1.648 1.648 0 0 0 3.3 0v-5.875a4.556 4.556 0 0 1 4.556-4.556H58.5a4.556 4.556 0 0 1 4.556 4.556v11.763h-7.638a1.648 1.648 0 0 0-1.618 1.433l-2.866 6.476-3.109-6.863-4.542-10.03v-.086l-.215-.172-.1-.129-.115-.129-.115-.1-.129-.1-.143-.086h-1.434l-.129.072-.129.1-.115.1-.115.129-.143.143-.086.158v.086L36.1 28.39h-8.6a1.648 1.648 0 0 0-1.648 1.648V41.5a7.866 7.866 0 0 0 7.823 7.723h15.768l10.445 8.31v-8.31a7.866 7.866 0 0 0 6.476-7.737v-4.155a1.648 1.648 0 0 0-3.3 0v4.155a4.556 4.556 0 0 1-4.556 4.556h-1.929v4.614l-5.946-4.714H33.682a4.556 4.556 0 0 1-4.556-4.556v-9.744z" class="cls-2" data-name="Path 742" transform="translate(-10.112 -8.76)"/>
</svg>
