<svg xmlns="http://www.w3.org/2000/svg" width="1000" height="593.646" viewBox="0 0 1000 593.646">
    <defs>
        <style>
            .cls-1{opacity:.064}.cls-2{fill:#2b3f64}.cls-3{fill:#e92c4b}.cls-4{fill:#fff}
        </style>
    </defs>
    <g id="Group_305" data-name="Group 305" transform="translate(-16 -664.474)">
        <g id="Group_289" class="cls-1" data-name="Group 289" transform="translate(16 664.474)">
            <path id="Path_2625" d="M-342.643 127.752c-1.118 1.135-2.92 2.115-3.215 3.43-.715 3.191-2.358 3.91-4.99 2.649a62.2 62.2 0 0 1-8.628-4.788c-6.281-4.347-8.642-3.4-10.351 3.865a35.145 35.145 0 0 1-3.792 6.674c-4.323 8.618-12.677 10.861-20.85 13.583a10.087 10.087 0 0 0-7.014 11.344c.177 2.823.594 5.642.58 8.465 0 1.389-.371 3.691-1.212 4.038-6.232 2.562-7.486 9.048-11.2 13.541-.313.375-.6.767-1.34 1.7-9.028-14.93-5.615-27.9 3.941-39.149l-8.333-11.083a14.906 14.906 0 0 0-5.953 10.54c-.476 4.212-2.34 4.7-6.4 4.243a214.013 214.013 0 0 0-24.208-.962c-4.184 0-9.795-.583-12.24 1.736a63.823 63.823 0 0 0-10.069 15.809c-.382.694.851 3.052 1.875 3.569a14.37 14.37 0 0 0 5.361.816c7.542.507 8.438 1.274 8.962 8.927a41.353 41.353 0 0 1-10.881 30.347 26.589 26.589 0 0 1-16.382 10.659c-3.292.594-5.84 9.889-4.767 13.177 1.58 4.837 2.635 9.844 4.066 15.375l-8.212 1.764c-4.066-8.885-6.979-18.461-17.1-23.01-.694.476-1.583 1.191-2.559 1.767-5.7 3.354-5.7 3.344-2.351 8.986a3.212 3.212 0 0 1 .653 1.33c.208 13.541 5.646 27.034 1.389 40.454-1.875 5.9-6.357 11.042-9.955 16.319-.562.826-2.729.51-4.132.819-2.729.594-5.455 1.2-8.159 1.892-3.819.983-1.861 4.42-2.833 6.6-.694 1.517-2.483 2.528-3.781 3.764-.955-1.462-2.625-2.885-2.712-4.4-.17-3.038-.878-4.965-4.271-4.514-3.219.424-4.909 2.4-3.871 5.576 1.281 3.92 3.056 7.677 4.639 11.5a4.5 4.5 0 0 0 .576.816c6.944 9.639 6.639 13.246-1.962 20.68a77.068 77.068 0 0 1-6.945 4.819c-3.038-10.069-7.753-15.243-14.68-15.559.4 5.17.573 10.288 1.3 15.33a8.971 8.971 0 0 0 2.849 5.61c6.67 4.774 5.68 11.805 6.482 18.548-7.292-1.455-10.107-4.805-10.4-11.712-.066-1.594-.2-3.76-1.2-4.642-4.2-3.7-4.142-8.375-4.628-13.4a113.275 113.275 0 0 0-4.212-17.868 5.176 5.176 0 0 0-2.083-2.708 19.245 19.245 0 0 1-8.951-18.159c.163-5.354-1.389-6.25-6.792-5.25-3.25.594-6.531 1-8.292 1.264-2.962 3.958-5.017 7.212-7.576 10-3.979 4.337-8.528 8.163-12.364 12.614a12.8 12.8 0 0 0-1.837 6.555c-.528 4.455-.431 9-1.139 13.416a8.5 8.5 0 0 1-3.984 6.064 8.5 8.5 0 0 1-7.214.779 7.68 7.68 0 0 1-3.3-5.753c-.781-11.059-2.462-21.84-8.618-31.312a20.1 20.1 0 0 0-6.021-4.406c-.649-.434-1.878-.4-2.153-.93-2.431-4.753-4.924-9.493-6.917-14.434-1.195-2.962-2.306-4.684-6.007-4.455a84.771 84.771 0 0 1-13.958-.621c-2.854-.3-6.354.4-7.521-3.951-.24-.9-3.187-1.361-4.934-1.51-6.722-.576-12.319-2.736-15.208-9.458-1.844-4.281-5.417-2.715-9.656-2.5a144.462 144.462 0 0 0 9.149 19.267c3.33 5.031 7.462 3.871 13.09-2.726a47.975 47.975 0 0 1 6.25 6.965c1.069 1.757 1.927 5.288.993 6.316-3 3.306-2.323 7.226-3.427 10.8a16.151 16.151 0 0 1-7.243 8.167c-5.156 2.91-11.038 4.514-16.507 6.91-3.073 1.347-5.927 3.187-9.91 5.364a7.354 7.354 0 0 1-5.9-7.271 19.149 19.149 0 0 0-1.986-5.024c-2.638-6.063-5.145-12.191-8.027-18.135a58.957 58.957 0 0 0-4.559-5.986 22.914 22.914 0 0 1-3.184-6.115 90.5 90.5 0 0 0-2.622-11.458c-.694-1.6-3.961-2.083-6.062-3.083a20.506 20.506 0 0 0-.1 6.337c3.5 11.222 7.292 22.35 10.965 33.513a8.424 8.424 0 0 0 .444 1.431c3.608 6.6 7.732 12.9 11.323 19.527 3.451 6.371 11.618 5.861 18.649 4.569a24.41 24.41 0 0 1 5.58.247 28.671 28.671 0 0 1-1.277 5.93c-1.8 4.056-4.135 7.878-5.952 11.927a40.306 40.306 0 0 1-17.038 19.621c-8.986 5.035-11.806 10.465-10.094 20.42 1.007 5.809 3.125 11.458 3.708 17.3 1.094 10.667.576 21.135-10.087 26.51a13.843 13.843 0 0 0-8.42 16.184c1.153 6.719-4 11.635-5.83 17.531-.927 2.983-2.507 5.757-3.552 8.708a33 33 0 0 1-12.479 17.625 41.889 41.889 0 0 1-12.351 4.493 75.462 75.462 0 0 1-10.33 1.26c-1.524-3.8-3.264-7.795-4.746-11.889-2.934-8.111-6.316-16.125-8.427-24.454a231.666 231.666 0 0 1-6.319-32.781 199.5 199.5 0 0 1 .021-29.861c.389-8.333-5.066-14.156-8.3-20.833-2.2-4.552-3.59-7.844-.736-12.8a20.447 20.447 0 0 0 .757-11.111c-.091-1.014-2.844-2.382-4.479-2.545-2.805-.281-4.913-.142-6.99-3.174-2.663-3.885-7.292-2.108-11.045-.847-8.823 2.955-17.666 6.028-26.867 1.9-7.857-3.528-15.823-7.066-18.559-16.562a12.335 12.335 0 0 0-3.507-4.719 20.892 20.892 0 0 1-5.948-18.708c.9-7.125 3.736-14.139.8-21.569-.462-1.167 2.083-3.628 3.417-5.365a47.578 47.578 0 0 0 5.146-6.371c1.587-3.1 2.292-6.6 6.424-7.559.747-.174 1.868-1.507 1.767-2.132-.84-5.1 2.719-7.9 5.462-11.166a3.213 3.213 0 0 0 .951-1.736c-.125-7.267 4.472-8.2 10.1-7.2 1-6.885 3.927-9.142 10.628-10.024a63.166 63.166 0 0 0 11.219-3.41c1.087-.347 2.042-1.368 3.125-1.479 8.243-.84 16.5-1.535 26.007-2.385a77.865 77.865 0 0 1-2.66 9.094c-2 4.587-1.149 5.354 3.347 6.774a91.146 91.146 0 0 1 15.013 7.215c1.719.917 2.951 2.7 4.6 3.8 2.271 1.51 3.938 1.42 4.424-1.941 1.059-7.358 2.014-8.2 8.809-5.274a53.47 53.47 0 0 0 28.263 4.1 9.073 9.073 0 0 0 8.524-6.444 77.045 77.045 0 0 0 2.91-10.048c.826-4.444-1.313-6.305-5.844-5.858a108.752 108.752 0 0 1-11.937.757c-5.121-.056-7.271-2.545-8.086-7.611a17.275 17.275 0 0 0-2.75-6.677c-.753-1.122-2.684-1.451-4.083-2.139a15.037 15.037 0 0 0-2.045 4.736c-.288 5.68-.851 6.944-6.128 9.75a123.093 123.093 0 0 1-4.726-13.788c-1.021-4.58-3.076-7.007-7.878-7.292-4.621-.257-8.441-1.573-8.788-7.444-.062-1.142-2.66-2.142-4.549-2.667a12.848 12.848 0 0 0 7.84 11.344 6.844 6.844 0 0 1 3.93 7.344c-.33 3.566-.309 7.594-4.486 8.351-.913-3.326-1.618-6.6-2.722-9.753a10.149 10.149 0 0 0-8.836-7.1 1.948 1.948 0 0 1-1.33-.614c-4.556-8.3-12.246-2.778-18.368-4.087a4.827 4.827 0 0 0-3.844 1.51c-3.295 3.885-6.25 8.048-9.43 12.038-3.017 3.8-6.222 7.441-5.8 12.83a.941.941 0 0 1-.532.983.941.941 0 0 1-1.1-.219 63.186 63.186 0 0 1-10.2-.326 49.589 49.589 0 0 1-8.941-3.6c.41-3.26.871-6.8 1.3-10.347.195-1.635.934-3.538.372-4.861-2.142-5.121.156-6.25 4.684-6.017a25.079 25.079 0 0 0 4.983-.3c7.521-1.125 8.594-2.4 8.58-9.955 0-3.125 1.2-6.417-2.222-8.923-.885-.649-.986-3.2-.517-4.555.278-.8 2.393-.931 3.653-1.431a16.568 16.568 0 0 0 5.576-2.451c4.351-4.319 8.1-9.257 12.583-13.423a12.176 12.176 0 0 1 7.358-2.7c5.35-.2 6.472-.917 6.534-6.3.035-3.163.035-6.33.076-9.5a5.932 5.932 0 0 1 .493-1.333c.555.469 1.128.743 1.389 1.2 5.49 9.76 14.441 11.715 24.468 10.34a24.817 24.817 0 0 0 8.17-4.024 35.184 35.184 0 0 0 5.146-3.819 13.935 13.935 0 0 0 4-4.167c1.552-3.524 2.8-6.271 7.729-5.871 3.618.292 6.944-6.691 5.924-11.722l-19.038 2.687c-3.125-2.778-2.885-9.028 1.389-14.972a42.122 42.122 0 0 0 4.83-8.08c.427-1.017-.695-3.042-1.639-4.115a3.472 3.472 0 0 0-3.3.483c-4.1 4.785-8.094 9.677-11.9 14.7a28.748 28.748 0 0 0-4.67 17.034 40.275 40.275 0 0 1-2.26 11.587 6.839 6.839 0 0 1-4.861 3.076c-.767.132-1.937-2.514-3.042-3.8a83.233 83.233 0 0 0-9.219-10.069c-.851-.694-4.045 1.347-6.135 2.195-1.736.694-4.385 2.583-5.007 2.052a7.886 7.886 0 0 1-2.66-5.555 64.119 64.119 0 0 1 2.132-13.67 12.756 12.756 0 0 1 4.253-5.174c4.577-4.048 9.469-7.743 13.91-11.923a24 24 0 0 0 3.049-5.84 75.75 75.75 0 0 1 3.708-5.84c1.132-1.632 3.063-2.99 3.524-4.757 2.16-8.267 8.726-9.375 15.6-10.26 4.934-.625 9.847-1.427 14.791-1.92a5.7 5.7 0 0 1 4.167.944c6.212 6.646 15.677 7.514 22.569 12.972 2.107 1.67 5.583 1.8 4.732 5.826a6.135 6.135 0 0 1-6.879 5.153h-5.208a34.726 34.726 0 0 0 3.819 10.243c.882 1.108 4.993-.347 6.944-.566.274-2.226-.028-3.875.66-4.649 4.195-4.733 8.573-9.3 12.993-13.823.715-.733 2.337-1.608 2.837-1.3a5.383 5.383 0 0 1 2.038 3.1c1.417 5.83 3.607 6.91 8.958 3.9 2.6-1.462 4.965-3.344 7.448-5.021a12.35 12.35 0 0 1 10.847-1.9c9.055 2.476 11.139.715 10.535-8.128 8.528-2.406 12.882 4.712 19.229 8.792-1.149-12.111-.319-23.125 9.67-31.357a171.9 171.9 0 0 1 4.379 21.357 163.625 163.625 0 0 1-.966 21.385c4.146-2.142 7.639-4 7.048-9.531-.135-1.267 1.757-2.75 3.125-4.726-8.573-2.812-5.191-12.107-9-18.031-.8-1.25 1.635-4.583 2.931-7.833 3.188 4.437 4.514 8.232 10.274 7.257 5.931-1 4.715-5.812 6.555-9.1 2.278.153 4.375.389 6.476.4 1.1 0 2.663 0 3.247-.653 7.639-8.715 18.118-8.781 28.329-9.406 5.851-.347 6.615-.969 7.5-6.781.278-1.826 1.986-4.552 3.444-4.861 3.087-.618 7.236-.889 8.038 3.594.82 4.569 3.427 5.368 7.361 5.045 1.8-.149 3.635.448 5.458.469 7.861.09 9.837 2.309 7.43 11.41-.167.628-.434 1.233-1.014 2.858 6.413 1.042 12.524 1.92 18.594 3.045a21.937 21.937 0 0 1 4.677 2 64.231 64.231 0 0 0 7.437 3.3 6.385 6.385 0 0 0 5.114-.269 6.385 6.385 0 0 0 3.272-3.939c1.114-2.858 2.871-2.635 5.163-2.156 5.267 1.108 10.357 2 12.236 8.451.722 2.483 3.372 4.406 4.969 6.371 1.736-1.625 3.608-4.663 4.993-4.451a49.648 49.648 0 0 1 11.458 3.99 21.353 21.353 0 0 1 4.052 3.3 16.229 16.229 0 0 0-1.802-13.455c-1.8-3.528-4-7.739-9.222-8.111-.944-.066-2.156-1.556-2.51-2.628-.18-.549 1.1-2.038 2-2.41a32.9 32.9 0 0 1 21.368-2.687c7.795 2.083 8.639 4.476 4.438 10.958l-10.2-4.361 3.389 10.1c8.385 4.059 16.118 8.482 24.361 11.552a56.868 56.868 0 0 0 17.959 3.122 7.135 7.135 0 0 1 7.84 5.24 7.22 7.22 0 0 0 3.719 5.343 7.219 7.219 0 0 0 6.507.178 17.138 17.138 0 0 1 16.024 1.927 8.292 8.292 0 0 0 7.4-1.684c5.691-5.163 8.9-5.934 15.951-2.34q11.611 5.9 23.246 11.805a3.258 3.258 0 0 0 1.868.583c8.194-2.049 12.736 3.8 17.937 8.212z" class="cls-2" data-name="Path 2625" transform="translate(1342.625 11.269)"/>
            <path id="Path_2626" d="M-1342.726 155.7c6.9-2.4 13.961-4.451 20.642-7.368a22.525 22.525 0 0 0 8.1-6.76c3.565-4.535 2.534-6.194-3.472-6.847a23.3 23.3 0 0 1-3.444-.514c-3.93-1.042-7.84-2.16-12.7-3.51 4.167-2.246 5.962-4.844 4.288-8.965-.268-.66 1.042-2.5 2.039-3.031a38.919 38.919 0 0 1 9.094-3.913c6.618-1.542 6.673-1.316 6.09-8.861h-13.444c.194-4.639 2.3-6.8 6.409-7.042 1.16-.069 2.518.378 3.472-.08 1.893-.92 4.306-1.958 5.069-3.608.542-1.174-.827-3.9-2.115-5.115-3.125-2.948-3.323-4.465.375-6.226 9.632-4.583 18.954-10.215 30.242-9.67a28.47 28.47 0 0 1 3.472-.122c16.961 3.035 33.985 5.8 50.825 9.417a13.08 13.08 0 0 0 13-2.868c3.16-2.934 6.41-4.462 10.708-1.941a5.64 5.64 0 0 0 4.681-.135 6.5 6.5 0 0 1 8.788 1.913 8.5 8.5 0 0 0 5.555 2.826c2.3-.122 6-1.389 6.452-2.955a5.239 5.239 0 0 0-.841-4.3 5.24 5.24 0 0 0-3.811-2.157 48.26 48.26 0 0 0-5.479-.285c-5.9-.434-7.486-3.531-4.583-8.757a25.346 25.346 0 0 1 13.778-10.941 6.309 6.309 0 0 1 7.434 2.431 17.6 17.6 0 0 0 7.313 4.278c4.514 1.469 9.344 2.021 13.868 3.472 4.239 1.389 5.9-.083 6.219-4.167.042-.576.431-1.125 1.806-1.792.226 1.33.4 2.67.694 3.99a60.882 60.882 0 0 0 2.555 10.764 7.246 7.246 0 0 1-.8 8.2c-1.389 1.9-2.712 6.16-1.83 6.983a7.055 7.055 0 0 0 9.563.371c.524-.406 1.268-.823 1.424-1.389 2.41-8.68 11.458-9.68 16.882-14.864 3.472 3.778 8.885 6.653 4.184 14.045 3.254-.8 5.247-1.413 7.292-1.736 1.441-.233 3.6-.694 4.268.042a7.136 7.136 0 0 1 1.507 4.861c-.733 11.069-7.694 17.118-17.326 20.913s-16.319 14.687-14.4 23.566a13.91 13.91 0 0 0 2.368 3.889c.632.993 1.826 1.979 1.823 2.965 0 4.687 2.778 6.153 6.757 6.076 3.472-.066 6.375-.167 7.6 4.288.347 1.281 3.729 2.351 5.761 2.431 6.461.267 6.68.427 6.371 6.712-.3 6 4.75 7.271 9.267 9.937.507-2.66.938-4.861 1.337-7.055 1.021-5.6-.5-11.934 5.132-16.187a5.6 5.6 0 0 0 1.389-4.125c-.232-7-.777-13.986-1.021-20.986-.031-.885 1.111-2.625 1.632-2.594a36.3 36.3 0 0 1 12.792 1.549 79.639 79.639 0 0 1 13.142 9.5l-.93 10.2 2.857 1.792 6.732-10.923 2.052.656a53.286 53.286 0 0 0 25.149 33.166c-1.489.694-3.031 1.323-4.455 2.149-6.142 3.566-12.274 7.149-18.36 10.809a18.4 18.4 0 0 0-10.111 18.007c.281 3.472-1.191 4.458-4.167 4.611-1.657.083-3.295.42-4.944.59-4.09.424-6 2.608-5.351 6.733.6 3.819-.448 5.792-4.764 6.2A11.934 11.934 0 0 0-1082.2 225.5a34.121 34.121 0 0 1-12.9 22.3 14.664 14.664 0 0 0-4.337 9.875c-.282 6.385.833 12.847.836 19.559-3.851-3.993-9.437-6.552-9.958-13.038-.267-3.326-1.642-5.233-5.156-5.5a12.5 12.5 0 0 1-4.261-1.257c-2.778-1.306-4.722-1.274-5.59 2.24-.816 3.319-3.108 3.5-5.156 1.431-3.59-3.618-7.031-3.035-11.184-1.042a11.459 11.459 0 0 0-7.007 9.3 61.656 61.656 0 0 0 .295 26.7 7.92 7.92 0 0 0 5 6.269 7.919 7.919 0 0 0 7.91-1.3 92.767 92.767 0 0 0 8.6-8.68c6.844.594 7.2 1.646 4.594 8.062a28.032 28.032 0 0 0-1.07 11.149c.028.806 3.25 2.535 4.233 2.1 4.479-1.979 5.833.875 6.6 4a85.163 85.163 0 0 1 1.627 11.332c.475 4.549 1.208 8.535 7.291 8.236a94.511 94.511 0 0 1 10.628.715l-8.544 4.514c-7.673-3.865-15.309-7.871-19.792-15.906a7.331 7.331 0 0 0-3.639-3.3 29.475 29.475 0 0 1-12.68-8.333 6.343 6.343 0 0 0-4.535-1.042c-14.41 1.087-31.625-10.493-35.024-24.361a53.161 53.161 0 0 0-9.594-18.958c-2.388-3.257-3.819-7.208-6.038-10.607a26.788 26.788 0 0 0-4.688-4.406l-1.142.91c2.34 4.642 4.8 9.226 6.989 13.937s4.059 9.469 6.069 14.215l-2 1.365c-1.535-1.312-3.67-2.326-4.514-3.99-4.406-8.726-8.368-17.67-12.75-26.406a25.241 25.241 0 0 0-5.284-7.118 52.125 52.125 0 0 1-13.2-53.065c3.771-10.232 2.431-14.989-6.364-21.5a11.547 11.547 0 0 1-5.065-10.233 9.149 9.149 0 0 0-5.208-8.541c-4.167-2.778-6.545-8.115-9.872-12.2a70.081 70.081 0 0 0-5.885-6.035c-.573-.552-1.674-.642-2.083-1.246-7.163-10.382-16.9-7.687-26.329-4.861-6.042 1.806-5.9 2.278-9.285-3.333-1.622.625-3.819.833-4.833 2.045-1.069 1.281-1.983 4.392-1.274 5.18 3.941 4.378 1.538 8.333-.125 13.76l-4.781-6.549c-.024 0-.472-.177-.653-.031-4.323 3.552-8.149 8.031-14.545 7.621a14.409 14.409 0 0 1-16.955 7.042 21.6 21.6 0 0 0-7.83 1.2z" class="cls-2" data-name="Path 2626" transform="translate(1342.726 11.322)"/>
            <path id="Path_2627" d="M-1035.891 494.019a65.138 65.138 0 0 1 4.461 7.958 7.82 7.82 0 0 1 .424 5.924 13.26 13.26 0 0 1-12.615 5.806 1229.299 1229.299 0 0 1-5.9 7.291c-.208.254-.594.41-.716.694a216.928 216.928 0 0 0-8.371 20.361c-.594 1.9 2.163 4.844 3.4 7.347-11.021 10.184-3.347 21.055-1.177 32.965a11.929 11.929 0 0 1-4.437-.736 193.725 193.725 0 0 1-16.416-10.416 8.631 8.631 0 0 1-3.268-6.031c.108-19.986.56-39.965.948-59.947a8.4 8.4 0 0 1 .618-4.354c3.857-5.4 3.677-11.677 4.052-17.75.9-14.628 1.486-29.277 2.2-43.916.347-7.455-2.232-10.177-8.333-14.236-6.878-4.566-13.826-9.743-12.9-20.062a19.444 19.444 0 0 0-2.583-11.25c-7.854-12.646-7.493-21.316 2.083-32.906 4.167-5.055 6.9-10.417 3.264-17.232-.653-1.222.5-4.2 1.736-5.486a128.812 128.812 0 0 1 10.83-9.6 10.1 10.1 0 0 1 12.243.378 15.6 15.6 0 0 0 8.892 3.108 21.843 21.843 0 0 1 21.9 14.146c2.285 6.906 2.285 6.906 9.413 4.931 5.111-1.417 12.746 4.552 13.388 10.462.927 8.555 5.531 11.788 14.177 10.417a13.194 13.194 0 0 1 6.153 1.1c9.344 3.379 16.177 10.354 23.382 16.746a12.618 12.618 0 0 1 2.115 14.736c-1.51 3.1-2.615 6.389-4.028 9.535-.6 1.333-1.271 3.288-2.351 3.649-7.691 2.576-7.4 9.406-8.542 15.43-1.118 5.868-1.437 12.017-6.746 16.114-.92.694-1.854 2.042-2.778 2.024-6.531-.125-8.483 6.357-13.1 8.982-1.042.6-1.434 3.212-1.34 4.861a19.4 19.4 0 0 1-9.566 18.986 9.993 9.993 0 0 0-3.4 4.122c-3.281 7.035-6.083 8.281-13.26 5.531-.764-.292-1.521-.6-2.284-.906z" class="cls-2" data-name="Path 2627" transform="translate(1342.722 11.277)"/>
            <path id="Path_2628" d="M-501.3 434.45c3.125 6.281 7.413 4.309 11.09 3.913.695-.073 1.51-2.67 1.563-4.125.243-6.858 1.1-7.812 7.882-7.771a40.183 40.183 0 0 1 4.986.243c4.618.611 5.667 2.642 3.184 6.534a6.694 6.694 0 0 0-1.054 5.031 6.694 6.694 0 0 0 2.824 4.295 28.707 28.707 0 0 0 9.2 4.788c.875.309 3.451-1.469 3.7-2.621.75-3.528.563-7.246 1.1-10.837a74.809 74.809 0 0 1 2.25-8.288 117.947 117.947 0 0 1 7.07 11.771 22.638 22.638 0 0 1 1.7 8.649 9.573 9.573 0 0 0 5.35 9.375 18.78 18.78 0 0 1 10.514 14.149 38.842 38.842 0 0 0 2.649 7.5 29.927 29.927 0 0 1 .892 18.864c-1.781 8.288-7.007 13.951-11.111 20.614-2.177 3.549-2.538 8.358-7.128 10.069a23.49 23.49 0 0 1-6.667 1.271c-2.507.149-5.1-.549-7.556-.184-3.368.5-5.812-.444-6.66-3.635-1.6-6.031-6.149-8.68-11.236-11.083-1.208-.576-1.975-2.382-2.594-3.778-.347-.785.306-1.986 0-2.83-1.062-3.042-12.868-7.139-15.767-5.948a95.863 95.863 0 0 1-9.8 2.993c-2.2.639-4.406 1.323-6.649 1.806a129.508 129.508 0 0 1-18.309 3.594c-5.625.379-9.351-5.267-8.84-10.857.417-4.556 0-9.181.16-13.767.253-7.128.406-14.291 1.267-21.354.195-1.6 2.92-3.42 4.861-4.187 6.785-2.687 14.472-3.472 19.444-9.774 1.931-2.455 3.9-4.861 5.865-7.292 1.72-2.121 3.44-4.205 5.82-7.128z" class="cls-2" data-name="Path 2628" transform="translate(1342.69 11.271)"/>
            <path id="Path_2629" d="M-1001.687 5.927l4.417 1.764c1.667-2.75 2.74-6.722 5.021-7.639 2.083-.83 5.507 1.646 9.34 3.024.667-2.045 1.736-4.691 2.371-7.441.695-3.125 1.833-4.993 5.587-4.781a20.31 20.31 0 0 0 7.26-1.483c4.993-1.67 8.024-.08 9.027 5.208a27.148 27.148 0 0 1 .247 5.444c-.031 1.8-.247 3.59-.434 6.035l14.93-8.469a12.181 12.181 0 0 1-1.15 14.725 15.711 15.711 0 0 1 1.143 14.715c-.174.465-.573.937-.538 1.389a82.717 82.717 0 0 1 .215 15.972c-.375 3.2.524 5.8-1.632 9.354a47.889 47.889 0 0 0-4.861 17.423c-.806 5.292-.514 10.746-5.451 14.33-1.184.858-2.632 2.142-3.847 2.031-4.615-.427-5.785 2.823-8.448 5.621-9.406 9.889-13.274 21.92-16.191 34.607a12.726 12.726 0 0 1-1.042 2.16c-6.944-6.361-11.548-13.194-10.615-22.916a97.954 97.954 0 0 0-.18-14.319c-.5-9.781-.906-19.58-1.851-29.319a68.565 68.565 0 0 0-3.365-15.2c-.4-1.177-3.927-2.062-5.84-1.8-4.556.618-7.639.174-7.437-5.441.024-.694-.639-1.483-1.132-2.108-4.146-5.271-3.99-8.392.8-12.611.695-.6 1.823-1.389 2.5-1.2 5.316 1.514 5.989-2.323 5.587-5.555-.552-4.451-.892-8.149 4.042-10.3.739-.355.948-1.953 1.527-3.22z" class="cls-2" data-name="Path 2629" transform="translate(1342.733 11.263)"/>
            <path id="Path_2630" d="M-1087.267 57.287l-12.774-2.326c4.961-9.292-6.167-8.68-7.09-14.5 6.576-3.5 9.055 6.479 15.788 4.674-.885-1.351-1.372-2.812-2.382-3.507-4.274-2.931-3.667-6.25-1.115-9.833 1.809-2.545 3.566-4.819 1.8-8.423-.649-1.33.719-3.819 1.5-5.632.962-2.246 2.274-4.34 3.656-6.917 3.927.035 6.521 12.524 12.462 1.142 3.59 5.809 8.6 5.573 13.642 3.851 2.8-.958 5.208-3.035 7.955-4.2a70.178 70.178 0 0 1 15.625-5.773c3.677-.59 7.82 1.531 11.664 2.733.239.076.191 3.524-.6 4.042a38.544 38.544 0 0 1-11.292 5.962c-7.406 1.753-11.052 7.055-15.316 12.5-5.156 6.6-11.517 12.232-17.114 18.5a22.28 22.28 0 0 0-3.052 6.2 29.164 29.164 0 0 0-.643 2.872 34.579 34.579 0 0 0-1.628 4.861c2.552 1.372 5.555 3.472 8.049 3.049a12.5 12.5 0 0 1 11.413 3.344c4.764 4.556 9 9.66 13.451 14.541a42.27 42.27 0 0 1 5.524 6.34 15.506 15.506 0 0 1 2.43 7.517c-.017 2.865-2.083 4.271-5.3 3.125a35.351 35.351 0 0 0-6.087-1 71.028 71.028 0 0 1 3.958 8.965c.674 2.389 2.486 5.528-2.215 6.694-.809.2-.861 3.451-1.271 5.326-6.128-3.6-12.26-7.319-18.517-10.8a20.381 20.381 0 0 0-4.92-1.1c-2.739-.694-6.312-.427-5.948-5.264a18.136 18.136 0 0 1 5.156-1.083 7.906 7.906 0 0 0 8.06-6.674 12.983 12.983 0 0 0-3.286-10.392 22.48 22.48 0 0 0-20-6.6 16.5 16.5 0 0 1-8.246-1.319c-1.15-.458-1.18-3.2-2.26-4.434-5.687-6.472-5.153-8.573 3.125-12.274a39.784 39.784 0 0 0 5.81-4.184z" class="cls-2" data-name="Path 2630" transform="translate(1342.721 11.28)"/>
            <path id="Path_2631" d="M-489.341 381.008a54.826 54.826 0 0 0-2.375 6.215c-.347 1.413-.715 3.535 0 4.306a5.142 5.142 0 0 0 4.333.556c3.472-1.017 6.733-2.847 10.232-3.7a16.576 16.576 0 0 1 16.51 4.566 27.86 27.86 0 0 0 10.868 6.389 18.891 18.891 0 0 1 12.473 12.525 11.833 11.833 0 0 0 8.6 8.8c1.042.323 1.736 1.736 2.583 2.674a11.015 11.015 0 0 1-3.819.639 14.271 14.271 0 0 1-10.25-6.3c-2.083-3.472-5.486-3.26-8.9-2.684a16.493 16.493 0 0 1-16.024-6.42 26.606 26.606 0 0 0-11.84-6.6 59.965 59.965 0 0 0-13.378-1.219c-6.621-.417-7.74-1.875-6.944-8.333.493-3.948.2-8.01.923-11.9.264-1.437 2.431-2.524 3.722-3.771z" class="cls-2" data-name="Path 2631" transform="translate(1342.697 11.256)"/>
            <path id="Path_2632" d="M-458.833 176.026c6.663 6.333 7.233 33.02.26 43.9a59.407 59.407 0 0 0 14.021-1.521c3.972-1.434 7.239-4.816 11.219-6.8a22.836 22.836 0 0 1-16.031 13.35c-5.184 1.09-6.229 4.292-6.323 8.41a15.258 15.258 0 0 1-2.778 8.048 17.776 17.776 0 0 0-1.569 10.7c.778 6.326.6 7.083-5.625 8.847-5.6 1.587-11.111 3.267-14.93 8.333a20.18 20.18 0 0 1-5.673 3.563c-1.108-4.368-3.531-8.26 2.778-9.91 1.09-.285 1.878-2.111 2.608-3.344 2.868-4.861 5.382-9.75 12.045-10.726 5.49-.805 5.653-5.878 6.132-10.153a378.173 378.173 0 0 0 2.892-58.114 24.287 24.287 0 0 1 .327-3.969c.04-.218.425-.406.647-.614z" class="cls-2" data-name="Path 2632" transform="translate(1342.699 11.272)"/>
            <path id="Path_2633" d="M-807.471 51.082l-10.135-9.469-6.894 12.32a9.513 9.513 0 0 1-8.139-7.885 7.232 7.232 0 0 0-3.347-4.458c-4.4-2.174-2.7-5-1.389-7.9 1.389-3.125 3.472-4.76 7.1-3.3a10.316 10.316 0 0 0 11.646-3.747c2.778-4.472 3.743-4.451 8.278-1.389a12.6 12.6 0 0 0 6.094 1.389c2.431.139 4.458.347 4.2 3.448-.229 2.743-.66 5.323-4.368 5.5a62.886 62.886 0 0 0-6.864 1.059c1.389 2.326 2.687 4.722 4.219 6.944 1.3 1.885 2.872 3.573 4.747 5.864z" class="cls-2" data-name="Path 2633" transform="translate(1342.726 11.277)"/>
            <path id="Path_2634" d="M-532.382 397.524c-3.267-1.1-6-2.024-8.733-2.927-.618-.2-1.618-.111-1.851-.5-2.621-4.469-5.208-8.958-7.531-13.594-.253-.507 1.184-2.6 2.128-2.851a28.125 28.125 0 0 0 17.923-15.75 6.25 6.25 0 0 1 3.917-2.878c.695-.132 2.542 2.083 2.667 3.35 1.275 12.81-.263 25.004-8.52 35.15z" class="cls-2" data-name="Path 2634" transform="translate(1342.705 11.27)"/>
            <path id="Path_2635" d="M-878.179 144.285a33.22 33.22 0 0 1 7.8 2.4c1.6.965 3.729 3.719 3.326 4.861-1.736 4.958 1.1 7.451 3.8 10.8a22.739 22.739 0 0 1 4.278 10.392 7.689 7.689 0 0 1-1.916 6.682 7.69 7.69 0 0 1-6.521 2.408h-7.59c-1.736-4.673-2.6-8.889.972-13.159a5.711 5.711 0 0 0-.382-5.121c-4.316-6.798-5.17-10.096-3.767-19.263z" class="cls-2" data-name="Path 2635" transform="translate(1342.716 11.274)"/>
            <path id="Path_2636" d="M-689.817 56.342c-1.434 6.128-9.823 14.975-19.444 10.6-4.788 6.726-5.837 13.344-3.545 23.892-4.076-2.042-7.872-3.778-11.5-5.812a4.735 4.735 0 0 1-3.082-3.389 4.735 4.735 0 0 1 1.229-4.413c1.6-2.288 2.607-5 4.243-7.264s3.326-5.208 5.632-5.983c7.427-2.521 13.889-8.26 22.5-7.09a16.017 16.017 0 0 0 3.972-.545z" class="cls-2" data-name="Path 2636" transform="translate(1342.698 11.274)"/>
            <path id="Path_2637" d="M-919.623 104.486c6.576 6.677 11.5 3.7 16.083.549l7.184 10.722c-2.906.948-5.847 1.771-8.68 2.875a9.492 9.492 0 0 0-4.639 2.733c-1.847 3.01-3.969 2.479-6.347 1.333-2.875-1.389-7.729-.91-6.975-6.045a104.7 104.7 0 0 1 3.375-12.167z" class="cls-2" data-name="Path 2637" transform="translate(1342.717 11.275)"/>
            <path id="Path_2638" d="M-560.462 404.314c6.788 1.25 13.26 2.333 19.673 3.694a12.613 12.613 0 0 1 5.351 2.458 25.181 25.181 0 0 0 27.506 2.552 9.725 9.725 0 0 1 5.156-1.212 4.754 4.754 0 0 1 3.562 2.139c.347.819-.781 2.573-1.621 3.608-1.667 2.049-3.587 3.885-5.719 6.146-2.236-5.437-5.778-6.722-10.649-3.25-.462.33-1.736.43-1.837.219-3.045-5.618-8.736-2.319-12.965-3.871a55.316 55.316 0 0 0-5.809-1.347c-5.9-1.458-11.743-3.323-17.729-4.3-4.482-.742-6.291-2.426-4.919-6.836z" class="cls-2" data-name="Path 2638" transform="translate(1342.713 11.268)"/>
            <path id="Path_2639" d="M-390.575 567.936c-.174-2.4-.153-3.042-.271-3.656-1.837-9.483-1.736-9.316 6.535-15.211a95.1 95.1 0 0 0 8.073-7.986c1.108-1.017 3.354-2.43 3.944-2.038a6.25 6.25 0 0 1 2.448 4.316c.16 5.063-3.191 8.083-7.146 10.51-3.757 2.3-8.1 3.851-8.177 9.6-.01 1.249-2.857 2.451-5.406 4.465z" class="cls-2" data-name="Path 2639" transform="translate(1342.708 11.259)"/>
            <path id="Path_2640" d="M-364.262 541.558l-6.944-9.524c3.031-2.733 5.7-5.805 2.215-10.5-.8-1.069.076-3.378.253-6.285a148.122 148.122 0 0 1 11.267 12.9c.885 1.264-.2 4.472-1.2 6.354a50.149 50.149 0 0 1-5.591 7.055z" class="cls-2" data-name="Path 2640" transform="translate(1342.714 11.265)"/>
            <path id="Path_2641" d="M-454.862 530.9a41.214 41.214 0 0 0 6.7 3.7c2.674.882 3.924 2.135 3.344 5.014-.632 3.146-1.118 6.323-1.715 9.722a6.916 6.916 0 0 1-5.792.022 6.917 6.917 0 0 1-3.778-4.39c-2.634-6.912-1.87-12.04 1.241-14.068z" class="cls-2" data-name="Path 2641" transform="translate(1342.715 11.267)"/>
            <path id="Path_2642" d="M-416.729 404.983c4.715-.153 18.031 7.569 18.4 11.024a8.264 8.264 0 0 1-3.549 5.326 24.416 24.416 0 0 1-14.788-13.133 9.245 9.245 0 0 1-.062-3.219z" class="cls-2" data-name="Path 2642" transform="translate(1342.719 11.27)"/>
            <path id="Path_2643" d="M-888.49 178.342c-.288-5.958-.733-11.736 5.1-15.2a14.67 14.67 0 0 1 4.513-.972 38.9 38.9 0 0 1 .32 4.062 55.268 55.268 0 0 1-.365 6.924c-.458 3.285-.594 7.135-5.885 4.861-.893-.407-2.218.162-3.683.325z" class="cls-2" data-name="Path 2643" transform="translate(1342.719 11.275)"/>
            <path id="Path_2644" d="M-607.548 36.248c5.7 5.444 5.7 5.441.195 8.611a6.738 6.738 0 0 0-.806.549c-1.389 1.1-2.038 5.132-4.365 2.233-1.2-1.5-.444-5.167.4-7.5.572-1.563 2.853-2.508 4.576-3.893z" class="cls-2" data-name="Path 2644" transform="translate(1342.716 11.275)"/>
        </g>
        <circle id="Ellipse_100" cx="19.097" cy="19.097" r="19.097" class="cls-3" data-name="Ellipse 100" transform="translate(588.907 829.491)"/>
        <circle id="Ellipse_101" cx="13.889" cy="13.889" r="13.889" class="cls-3" data-name="Ellipse 101" transform="translate(248.635 885.046)"/>
        <circle id="Ellipse_103" cx="8.68" cy="8.68" r="8.68" class="cls-3" data-name="Ellipse 103" transform="translate(349.328 1076.015)"/>
        <circle id="Ellipse_105" cx="8.68" cy="8.68" r="8.68" class="cls-3" data-name="Ellipse 105" transform="translate(918.762 857.269)"/>
        <circle id="Ellipse_107" cx="8.68" cy="8.68" r="8.68" class="cls-3" data-name="Ellipse 107" transform="translate(515.992 961.434)"/>
        <circle id="Ellipse_111" cx="8.68" cy="8.68" r="8.68" class="cls-3" data-name="Ellipse 111" transform="translate(515.992 860.741)"/>
        <circle id="Ellipse_109" cx="8.68" cy="8.68" r="8.68" class="cls-3" data-name="Ellipse 109" transform="translate(831.958 1124.625)"/>
        <circle id="Ellipse_99" cx="8.68" cy="8.68" r="8.68" class="cls-4" data-name="Ellipse 99" transform="translate(599.323 839.908)"/>
        <circle id="Ellipse_102" cx="6.944" cy="6.944" r="6.944" class="cls-4" data-name="Ellipse 102" transform="translate(255.579 891.99)"/>
        <circle id="Ellipse_104" cx="5.208" cy="5.208" r="5.208" class="cls-4" data-name="Ellipse 104" transform="translate(352.8 1079.487)"/>
        <circle id="Ellipse_106" cx="5.208" cy="5.208" r="5.208" class="cls-4" data-name="Ellipse 106" transform="translate(922.235 860.741)"/>
        <circle id="Ellipse_108" cx="5.208" cy="5.208" r="5.208" class="cls-4" data-name="Ellipse 108" transform="translate(519.464 964.906)"/>
        <circle id="Ellipse_112" cx="5.208" cy="5.208" r="5.208" class="cls-4" data-name="Ellipse 112" transform="translate(519.464 864.213)"/>
        <circle id="Ellipse_110" cx="5.208" cy="5.208" r="5.208" class="cls-4" data-name="Ellipse 110" transform="translate(835.431 1128.098)"/>
    </g>
</svg>
