<svg xmlns="http://www.w3.org/2000/svg" width="10.975" height="14.277" viewBox="0 0 10.975 14.277">
    <defs>
        <style>
            .cls-1{fill:#2b3f64}
        </style>
    </defs>
    <g id="Group_320" data-name="Group 320" transform="translate(-943 -2935.723)">
        <path id="Path_2651" d="M-1.025-10.117A4 4 0 0 1-2.5-6.782a6.7 6.7 0 0 1-4.238 1.167h-1.68V0h-1.66v-14.277h3.7q5.353 0 5.353 4.16zm-7.393 3.076h1.494a5.553 5.553 0 0 0 3.194-.713 2.627 2.627 0 0 0 .986-2.285 2.463 2.463 0 0 0-.928-2.109 4.847 4.847 0 0 0-2.891-.693h-1.855z" class="cls-1" data-name="Path 2651" transform="translate(955 2950)"/>
        <path id="Rectangle_46" d="M0 0h6v1H0z" class="cls-1" data-name="Rectangle 46" transform="translate(943 2947)"/>
    </g>
</svg>
